HIERARCHY
ROOT hips
{
  OFFSET 0 10.6860622 2.3727825e-15
  CHANNELS 6 Xposition Yposition Zposition Yrotation Xrotation Zrotation
  JOINT leftUpperLeg
  {
    OFFSET 0.6642549969 -0.9402397400000004 0
    CHANNELS 3 Yrotation Xrotation Zrotation
    JOINT leftLowerLeg
    {
      OFFSET 0 -3.997221335632195 0
      CHANNELS 3 Yrotation Xrotation Zrotation
      JOINT leftFoot
      {
        OFFSET -0.13777839790000004 -4.6145792000000005 -0.22186036399999998
        CHANNELS 3 Yrotation Xrotation Zrotation
        JOINT leftToes
        {
          OFFSET -0.03777410834999995 -0.9130806927000008 0.85230013
          CHANNELS 3 Yrotation Xrotation Zrotation
          End Site
          {
            OFFSET -0.03777410834999995 -0.9130806927000008 0.85230013
          }
        }
      }
    }
  }
  JOINT rightUpperLeg
  {
    OFFSET -0.6642778626 -0.9402397400000004 0
    CHANNELS 3 Yrotation Xrotation Zrotation
    JOINT rightLowerLeg
    {
      OFFSET 0 -3.997221452859387 0
      CHANNELS 3 Yrotation Xrotation Zrotation
      JOINT rightFoot
      {
        OFFSET 0.1377926176 -4.6145792000000005 -0.22185782299999995
        CHANNELS 3 Yrotation Xrotation Zrotation
        JOINT rightToes
        {
          OFFSET 0.037780746850000047 -0.9130806927000008 0.85230167
          CHANNELS 3 Yrotation Xrotation Zrotation
          End Site
          {
            OFFSET 0.037780746850000047 -0.9130806927000008 0.85230167
          }
        }
      }
    }
  }
  JOINT spine
  {
    OFFSET 0 0.13988381660000015 0
    CHANNELS 3 Yrotation Xrotation Zrotation
    JOINT chest
    {
      OFFSET 0 0.6191039003973773 0
      CHANNELS 3 Yrotation Xrotation Zrotation
      JOINT upperChest
      {
        OFFSET 0 0.9855186130586943 0
        CHANNELS 3 Yrotation Xrotation Zrotation
        JOINT leftShoulder
        {
          OFFSET 0.1807663869 1.5087829790000005 0
          CHANNELS 3 Yrotation Xrotation Zrotation
          JOINT leftUpperArm
          {
            OFFSET 0.5985063006419806 0 0
            CHANNELS 3 Yrotation Xrotation Zrotation
            JOINT leftLowerArm
            {
              OFFSET 2.2993332369501065 0 0
              CHANNELS 3 Yrotation Xrotation Zrotation
              JOINT leftHand
              {
                OFFSET 2.395047042602395 0 0
                CHANNELS 3 Yrotation Xrotation Zrotation
                JOINT leftIndexProximal
                {
                  OFFSET 0.5766295810000004 0.04556643899499946 0.17265095988184
                  CHANNELS 3 Yrotation Xrotation Zrotation
                  JOINT leftIndexIntermediate
                  {
                    OFFSET 0.2957229000000008 -0.019352197700001517 -0.007932640616999987
                    CHANNELS 3 Yrotation Xrotation Zrotation
                    JOINT leftIndexDistal
                    {
                      OFFSET 0.19008243099999922 -0.012484908149998475 -0.002786250786000012
                      CHANNELS 3 Yrotation Xrotation Zrotation
                      End Site
                      {
                        OFFSET 0.19008243099999922 -0.012484908149998475 -0.002786250786000012
                      }
                    }
                  }
                }
                JOINT leftMiddleProximal
                {
                  OFFSET 0.5834975091000001 0.0524350405149987 0.02204081888183999
                  CHANNELS 3 Yrotation Xrotation Zrotation
                  JOINT leftMiddleIntermediate
                  {
                    OFFSET 0.33880573540000003 -0.019871473270000717 -0.00000971183179999946
                    CHANNELS 3 Yrotation Xrotation Zrotation
                    JOINT leftMiddleDistal
                    {
                      OFFSET 0.20676022730000088 -0.012221336379999448 0.0001471936708000235
                      CHANNELS 3 Yrotation Xrotation Zrotation
                      End Site
                      {
                        OFFSET 0.20676022730000088 -0.012221336379999448 0.0001471936708000235
                      }
                    }
                  }
                }
                JOINT leftLittleProximal
                {
                  OFFSET 0.5344154683999995 -0.012880921405001189 -0.24414037221816004
                  CHANNELS 3 Yrotation Xrotation Zrotation
                  JOINT leftLittleIntermediate
                  {
                    OFFSET 0.21758961730000093 -0.011650919939999227 0.011893592810000034
                    CHANNELS 3 Yrotation Xrotation Zrotation
                    JOINT leftLittleDistal
                    {
                      OFFSET 0.1475273964999999 -0.008152365682999818 0.006001092492999946
                      CHANNELS 3 Yrotation Xrotation Zrotation
                      End Site
                      {
                        OFFSET 0.1475273964999999 -0.008152365682999818 0.006001092492999946
                      }
                    }
                  }
                }
                JOINT leftRingProximal
                {
                  OFFSET 0.5799399463000003 0.026911854694997794 -0.12150566991816003
                  CHANNELS 3 Yrotation Xrotation Zrotation
                  JOINT leftRingIntermediate
                  {
                    OFFSET 0.26167887460000006 -0.013480186499999602 0.010996293000000053
                    CHANNELS 3 Yrotation Xrotation Zrotation
                    JOINT leftRingDistal
                    {
                      OFFSET 0.17667108799999987 -0.008990287899999228 0.0055541023999999065
                      CHANNELS 3 Yrotation Xrotation Zrotation
                      End Site
                      {
                        OFFSET 0.17667108799999987 -0.008990287899999228 0.0055541023999999065
                      }
                    }
                  }
                }
                JOINT leftThumbProximal
                {
                  OFFSET 0.11018806699999972 -0.09448718900500053 0.17047963138184
                  CHANNELS 3 Yrotation Xrotation Zrotation
                  JOINT leftThumbIntermediate
                  {
                    OFFSET 0.31062601459999983 -0.08126270900000132 0.15443142000000007
                    CHANNELS 3 Yrotation Xrotation Zrotation
                    JOINT leftThumbDistal
                    {
                      OFFSET 0.21627175790000086 -0.08833193599999878 0.018771167799999988
                      CHANNELS 3 Yrotation Xrotation Zrotation
                      End Site
                      {
                        OFFSET 0.21627175790000086 -0.08833193599999878 0.018771167799999988
                      }
                    }
                  }
                }
              }
            }
          }
        }
        JOINT neck
        {
          OFFSET 0 1.5463305265074576 0
          CHANNELS 3 Yrotation Xrotation Zrotation
          JOINT head
          {
            OFFSET 0 0.8456443600000344 0
            CHANNELS 3 Yrotation Xrotation Zrotation
            JOINT leftEye
            {
              OFFSET 0.30408573140000006 0.5104519199999995 0.1276382305
              CHANNELS 3 Yrotation Xrotation Zrotation
              End Site
              {
                OFFSET 0.30408573140000006 0.5104519199999995 0.1276382305
              }
            }
            JOINT rightEye
            {
              OFFSET -0.30409491089999996 0.5104519199999995 0.1276379445
              CHANNELS 3 Yrotation Xrotation Zrotation
              End Site
              {
                OFFSET -0.30409491089999996 0.5104519199999995 0.1276379445
              }
            }
            JOINT jaw
            {
              OFFSET -3.155239131000001e-7 -0.11984121820000082 0.60178107
              CHANNELS 3 Yrotation Xrotation Zrotation
              End Site
              {
                OFFSET -3.155239131000001e-7 -0.11984121820000082 0.60178107
              }
            }
          }
        }
        JOINT rightShoulder
        {
          OFFSET -0.1807303465 1.5087829790000005 0
          CHANNELS 3 Yrotation Xrotation Zrotation
          JOINT rightUpperArm
          {
            OFFSET -0.5985063796536958 0 0
            CHANNELS 3 Yrotation Xrotation Zrotation
            JOINT rightLowerArm
            {
              OFFSET -2.2993322059002854 0 0
              CHANNELS 3 Yrotation Xrotation Zrotation
              JOINT rightHand
              {
                OFFSET -2.395045314457259 0 0
                CHANNELS 3 Yrotation Xrotation Zrotation
                JOINT rightIndexProximal
                {
                  OFFSET -0.5764487688300002 0.0441371204405987 0.17361932004999997
                  CHANNELS 3 Yrotation Xrotation Zrotation
                  JOINT rightIndexIntermediate
                  {
                    OFFSET -0.29573011380000047 -0.01934826376999843 -0.007698921482999974
                    CHANNELS 3 Yrotation Xrotation Zrotation
                    JOINT rightIndexDistal
                    {
                      OFFSET -0.19008373999999884 -0.012503266380000655 -0.0026365778999999897
                      CHANNELS 3 Yrotation Xrotation Zrotation
                      End Site
                      {
                        OFFSET -0.19008373999999884 -0.012503266380000655 -0.0026365778999999897
                      }
                    }
                  }
                }
                JOINT rightMiddleProximal
                {
                  OFFSET -0.5834852037300005 0.05211639405060153 0.02307162440000001
                  CHANNELS 3 Yrotation Xrotation Zrotation
                  JOINT rightMiddleIntermediate
                  {
                    OFFSET -0.33880114510000003 -0.019952774050000954 0.0002455003561999819
                    CHANNELS 3 Yrotation Xrotation Zrotation
                    JOINT rightMiddleDistal
                    {
                      OFFSET -0.20675694929999955 -0.012273788999999091 0.00030209124000002766
                      CHANNELS 3 Yrotation Xrotation Zrotation
                      End Site
                      {
                        OFFSET -0.20675694929999955 -0.012273788999999091 0.00030209124000002766
                      }
                    }
                  }
                }
                JOINT rightLittleProximal
                {
                  OFFSET -0.5346811737299992 -0.011214256288399227 -0.24363941305000003
                  CHANNELS 3 Yrotation Xrotation Zrotation
                  JOINT rightLittleIntermediate
                  {
                    OFFSET -0.21757715980000092 -0.011771559690000988 0.01201554387
                    CHANNELS 3 Yrotation Xrotation Zrotation
                    JOINT rightLittleDistal
                    {
                      OFFSET -0.1475201849000004 -0.00822055339600003 0.006082065407000015
                      CHANNELS 3 Yrotation Xrotation Zrotation
                      End Site
                      {
                        OFFSET -0.1475201849000004 -0.00822055339600003 0.006082065407000015
                      }
                    }
                  }
                }
                JOINT rightRingProximal
                {
                  OFFSET -0.5800810755299999 0.027657985680600072 -0.12066365025000003
                  CHANNELS 3 Yrotation Xrotation Zrotation
                  JOINT rightRingIntermediate
                  {
                    OFFSET -0.26166445029999974 -0.013623118409999302 0.011164098990000045
                    CHANNELS 3 Yrotation Xrotation Zrotation
                    JOINT rightRingDistal
                    {
                      OFFSET -0.17666387530000027 -0.009072900100000503 0.005668185599999959
                      CHANNELS 3 Yrotation Xrotation Zrotation
                      End Site
                      {
                        OFFSET -0.17666387530000027 -0.009072900100000503 0.005668185599999959
                      }
                    }
                  }
                }
                JOINT rightThumbProximal
                {
                  OFFSET -0.10997596379000074 -0.09577489355940072 0.16989765924999997
                  CHANNELS 3 Yrotation Xrotation Zrotation
                  JOINT rightThumbIntermediate
                  {
                    OFFSET -0.31036620999999986 -0.08229339117999834 0.15440884469999996
                    CHANNELS 3 Yrotation Xrotation Zrotation
                    JOINT rightThumbDistal
                    {
                      OFFSET -0.21631306399999906 -0.08825326400000111 0.018656797720000014
                      CHANNELS 3 Yrotation Xrotation Zrotation
                      End Site
                      {
                        OFFSET -0.21631306399999906 -0.08825326400000111 0.018656797720000014
                      }
                    }
                  }
                }
              }
            }
          }
        }
      }
    }
  }
}
MOTION
Frames: 8
Frame Time: 0.03333333333333333
-2.279071759254542 -10.23284665947574 -1.2407130561028794 0 -90 0 73.36724509293576 -66.22158936172423 -67.3561070612032 10.001748206062292 70.24863264034349 20.44996367601968 -39.629510657125735 48.37395807479611 -22.26981064115413 0 0 0 -0.1793501021450088 -62.05619166121192 -60.07135541739529 -137.8000970462479 77.57537684968698 -144.88989644981797 56.58358752457671 49.22548799667247 -14.016174472472942 0 0 0 -9.398620938975057 32.188452660080465 -21.764411179013567 -19.966318695521124 23.76324333969587 -12.011577279239846 0 0 0 -8.051115866293683 11.236366648141894 -33.95381893319365 70.19314109937194 -43.530989705338605 -70.77979504477806 -32.366036135552676 57.07072646659765 -25.849068429650153 19.323501731111755 34.09251278775791 83.46393515651823 0 0 0 0 0 0 0 0 0 0 0 0 0 0 0 0 0 0 0 0 0 0 0 0 0 0 0 0 0 0 0 0 0 0 0 0 0 0 0 0 0 0 0 0 0 -13.105840752100804 -5.814866817756194 -9.445503971184692 29.897726142282668 -13.848612129156885 2.812344764109573 0 0 0 0 0 0 0 0 0 -46.83768324616356 -9.03647912745824 35.591143936202265 24.635156542456414 51.242479788695086 48.75353655759835 10.007674853032919 43.81682076218662 -76.2357891314458 8.524716881550502 8.905286845686257 -1.7498144329592369 0 0 0 0 0 0 0 0 0 0 0 0 0 0 0 0 0 0 0 0 0 0 0 0 0 0 0 0 0 0 0 0 0 0 0 0 0 0 0 0 0 0 0 0 0
-2.279071759254542 -10.23284665947574 -1.2407130561028794 0 -90 0 73.36724509293576 -66.22158936172423 -67.3561070612032 10.001748206062292 70.24863264034349 20.44996367601968 -39.629510657125735 48.37395807479611 -22.26981064115413 0 0 0 -0.10807278017599306 -61.97709821208314 -60.022654514380335 -137.8000970462479 77.57537684968698 -144.88989644981797 56.58035584990012 49.142157994635085 -13.904175942397943 0 0 0 -9.388348216147877 32.08985451316752 -21.745141306780376 -20.000290409493353 23.974458762821648 -12.095556124926398 0 0 0 -8.12157103094065 11.14517521507133 -33.836038478334906 70.19314109937194 -43.530989705338605 -70.77979504477806 -32.366036135552676 57.07072646659765 -25.849068429650153 19.323501731111755 34.09251278775791 83.46393515651823 0 0 0 0 0 0 0 0 0 0 0 0 0 0 0 0 0 0 0 0 0 0 0 0 0 0 0 0 0 0 0 0 0 0 0 0 0 0 0 0 0 0 0 0 0 -13.636078700127719 -5.981430246102899 -8.977795136278031 29.90043026258798 -14.15985676091043 2.9206575862748014 0 0 0 0 0 0 0 0 0 -46.77888731349513 -9.100348261378048 35.63240296794557 24.635156542456414 51.242479788695086 48.75353655759835 10.007674853032919 43.81682076218662 -76.2357891314458 8.524716881550502 8.905286845686257 -1.7498144329592369 0 0 0 0 0 0 0 0 0 0 0 0 0 0 0 0 0 0 0 0 0 0 0 0 0 0 0 0 0 0 0 0 0 0 0 0 0 0 0 0 0 0 0 0 0
-2.279071759254542 -10.23284665947574 -1.2407130561028794 0 -90 0 73.36724509293576 -66.22158936172423 -67.3561070612032 10.001748206062292 70.24863264034349 20.44996367601968 -39.629510657125735 48.37395807479611 -22.26981064115413 0 0 0 -0.036834178116137956 -61.898028127600895 -59.97386802820297 -137.8000970462479 77.57537684968698 -144.88989644981797 56.57687318456874 49.05882195002187 -13.792354209034674 0 0 0 -9.378121928080423 31.991245874002033 -21.725907576693434 -20.03466995227075 24.18568781708133 -12.17983431646651 0 0 0 -8.192208381482395 11.054111537282989 -33.71816011126702 70.19314109937194 -43.530989705338605 -70.77979504477806 -32.366036135552676 57.07072646659765 -25.849068429650153 19.323501731111755 34.09251278775791 83.46393515651823 0 0 0 0 0 0 0 0 0 0 0 0 0 0 0 0 0 0 0 0 0 0 0 0 0 0 0 0 0 0 0 0 0 0 0 0 0 0 0 0 0 0 0 0 0 -14.16674256634618 -6.143348575480095 -8.509372447831076 29.90252903418209 -14.470964231545569 3.0290555425593313 0 0 0 0 0 0 0 0 0 -46.72011878741491 -9.164259934877267 35.673598912197214 24.635156542456414 51.242479788695086 48.75353655759835 10.007674853032919 43.81682076218662 -76.2357891314458 8.524716881550502 8.905286845686257 -1.7498144329592369 0 0 0 0 0 0 0 0 0 0 0 0 0 0 0 0 0 0 0 0 0 0 0 0 0 0 0 0 0 0 0 0 0 0 0 0 0 0 0 0 0 0 0 0 0
-2.279071759254542 -10.23284665947574 -1.2407130561028794 0 -90 0 73.36724509293576 -66.22158936172423 -67.3561070612032 10.001748206062292 70.24863264034349 20.44996367601968 -39.629510657125735 48.37395807479611 -22.26981064115413 0 0 0 0.03436343740359206 -61.818981077011266 -59.92499810904562 -137.8000970462479 77.57537684968698 -144.88989644981797 56.57314806469402 48.97549532606239 -13.680709777745511 0 0 0 -9.367945788945226 31.89263050712825 -21.706713441311024 -20.069445673811586 24.396871574012216 -12.26439084276824 0 0 0 -8.26301434812301 10.963190919009898 -33.600206488702035 70.19314109937194 -43.530989705338605 -70.77979504477806 -32.366036135552676 57.07072646659765 -25.849068429650153 19.323501731111755 34.09251278775791 83.46393515651823 0 0 0 0 0 0 0 0 0 0 0 0 0 0 0 0 0 0 0 0 0 0 0 0 0 0 0 0 0 0 0 0 0 0 0 0 0 0 0 0 0 0 0 0 0 -14.698881998849462 -6.300939739224686 -8.039319192739828 29.904025249644665 -14.782073845210085 3.1375948818308244 0 0 0 0 0 0 0 0 0 -46.66138715595672 -9.22821425039097 35.714740359745484 24.635156542456414 51.242479788695086 48.75353655759835 10.007674853032919 43.81682076218662 -76.2357891314458 8.524716881550502 8.905286845686257 -1.7498144329592369 0 0 0 0 0 0 0 0 0 0 0 0 0 0 0 0 0 0 0 0 0 0 0 0 0 0 0 0 0 0 0 0 0 0 0 0 0 0 0 0 0 0 0 0 0
-2.279071759254542 -10.23284665947574 -1.2407130561028794 0 -90 0 73.36724509293576 -66.22158936172423 -67.3561070612032 10.001748206062292 70.24863264034349 20.44996367601968 -39.629510657125735 48.37395807479611 -22.26981064115413 0 0 0 0.08181121182096326 -61.766302094970314 -59.892371020934604 -137.8000970462479 77.57537684968698 -144.88989644981797 56.57052940561642 48.919938395247634 -13.606368149240506 0 0 0 -9.361189069275618 31.826881271795 -21.693938165827372 -20.092856230571197 24.53766483564167 -12.320931735829452 0 0 0 -8.310317903080799 10.902646328694987 -33.521509448292086 70.19314109937194 -43.530989705338605 -70.77979504477806 -32.366036135552676 57.07072646659765 -25.849068429650153 19.323501731111755 34.09251278775791 83.46393515651823 0 0 0 0 0 0 0 0 0 0 0 0 0 0 0 0 0 0 0 0 0 0 0 0 0 0 0 0 0 0 0 0 0 0 0 0 0 0 0 0 0 0 0 0 0 -15.053619048781114 -6.4033485374743275 -7.725794991612362 29.904682226613613 -14.989372265446827 3.2099986917207826 0 0 0 0 0 0 0 0 0 -46.62224507803055 -9.270875354936049 35.742132349671735 24.635156542456414 51.242479788695086 48.75353655759835 10.007674853032919 43.81682076218662 -76.2357891314458 8.524716881550502 8.905286845686257 -1.7498144329592369 0 0 0 0 0 0 0 0 0 0 0 0 0 0 0 0 0 0 0 0 0 0 0 0 0 0 0 0 0 0 0 0 0 0 0 0 0 0 0 0 0 0 0 0 0
-2.279071759254542 -10.23284665947574 -1.2407130561028794 0 -90 0 73.36724509293576 -66.22158936172423 -67.3561070612032 10.001748206062292 70.24863264034349 20.44996367601968 -39.629510657125735 48.37395807479611 -22.26981064115413 0 0 0 0.129241212941141 -61.71363388723421 -59.85970785797905 -137.8000970462479 77.57537684968698 -144.88989644981797 56.56780451597175 48.86438089634372 -13.532106195907955 0 0 0 -9.354452737105188 31.761130634184205 -21.681181676522257 -20.116447191832997 24.67843769609747 -12.377599724114651 0 0 0 -8.357695141621512 10.84216621656294 -33.442779262807036 70.19314109937194 -43.530989705338605 -70.77979504477806 -32.366036135552676 57.07072646659765 -25.849068429650153 19.323501731111755 34.09251278775791 83.46393515651823 0 0 0 0 0 0 0 0 0 0 0 0 0 0 0 0 0 0 0 0 0 0 0 0 0 0 0 0 0 0 0 0 0 0 0 0 0 0 0 0 0 0 0 0 0 -15.408984926241827 -6.503823821411631 -7.41157503725058 29.905068895976616 -15.1966717534842 3.282470635680967 0 0 0 0 0 0 0 0 0 -46.58311736852336 -9.313555488027497 35.769496165546244 24.635156542456414 51.242479788695086 48.75353655759835 10.007674853032919 43.81682076218662 -76.2357891314458 8.524716881550502 8.905286845686257 -1.7498144329592369 0 0 0 0 0 0 0 0 0 0 0 0 0 0 0 0 0 0 0 0 0 0 0 0 0 0 0 0 0 0 0 0 0 0 0 0 0 0 0 0 0 0 0 0 0
-2.279071759254542 -10.23284665947574 -1.2407130561028794 0 -90 0 73.36724509293576 -66.22158936172423 -67.3561070612032 10.001748206062292 70.24863264034349 20.44996367601968 -39.629510657125735 48.37395807479611 -22.26981064115413 0 0 0 0.17665359154393587 -61.660976354279924 -59.827008420395394 -137.8000970462479 77.57537684968698 -144.88989644981797 56.56497374122817 48.8088331502777 -13.457922042066278 0 0 0 -9.347739017928891 31.695378510790004 -21.66844388283559 -20.140217000658367 24.819190937622427 -12.434396291880326 0 0 0 -8.405148110266666 10.781749606922252 -33.364010672022374 70.19314109937194 -43.530989705338605 -70.77979504477806 -32.366036135552676 57.07072646659765 -25.849068429650153 19.323501731111755 34.09251278775791 83.46393515651823 0 0 0 0 0 0 0 0 0 0 0 0 0 0 0 0 0 0 0 0 0 0 0 0 0 0 0 0 0 0 0 0 0 0 0 0 0 0 0 0 0 0 0 0 0 -15.764971192382589 -6.602359592495109 -7.096671893834087 29.905184249782153 -15.403969716568723 3.3550127961408305 0 0 0 0 0 0 0 0 0 -46.54400631569145 -9.356253815026358 35.796838707313455 24.635156542456414 51.242479788695086 48.75353655759835 10.007674853032919 43.81682076218662 -76.2357891314458 8.524716881550502 8.905286845686257 -1.7498144329592369 0 0 0 0 0 0 0 0 0 0 0 0 0 0 0 0 0 0 0 0 0 0 0 0 0 0 0 0 0 0 0 0 0 0 0 0 0 0 0 0 0 0 0 0 0
-2.279071759254542 -10.23284665947574 -1.2407130561028794 0 -90 0 73.36724509293576 -66.22158936172423 -67.3561070612032 10.001748206062292 70.24863264034349 20.44996367601968 -39.629510657125735 48.37395807479611 -22.26981064115413 0 0 0 0.24774635624618202 -61.58199639886843 -59.77787147313101 -137.8000970462479 77.57537684968698 -144.88989644981797 56.560538384020674 48.72550245374265 -13.346784873327511 0 0 0 -9.337713158969589 31.596749362324772 -21.64937269304431 -20.176222700284193 25.03032648327151 -12.519852862275215 0 0 0 -8.476480504153873 10.691235166236662 -33.245786737442906 70.19314109937194 -43.530989705338605 -70.77979504477806 -32.366036135552676 57.07072646659765 -25.849068429650153 19.323501731111755 34.09251278775791 83.46393515651823 0 0 0 0 0 0 0 0 0 0 0 0 0 0 0 0 0 0 0 0 0 0 0 0 0 0 0 0 0 0 0 0 0 0 0 0 0 0 0 0 0 0 0 0 0 -16.29869416603697 -6.746137475329097 -6.624297307100876 29.904850516430024 -15.714734371636343 3.463896255624246 0 0 0 0 0 0 0 0 0 -46.48537849373954 -9.420338406509318 35.83780637042377 24.635156542456414 51.242479788695086 48.75353655759835 10.007674853032919 43.81682076218662 -76.2357891314458 8.524716881550502 8.905286845686257 -1.7498144329592369 0 0 0 0 0 0 0 0 0 0 0 0 0 0 0 0 0 0 0 0 0 0 0 0 0 0 0 0 0 0 0 0 0 0 0 0 0 0 0 0 0 0 0 0 0
